<?xml version="1.0" encoding="UTF-8"?>
<svg width="11px" height="11px" viewBox="0 0 11 11" version="1.1" xmlns="http://www.w3.org/2000/svg" xmlns:xlink="http://www.w3.org/1999/xlink">
    <!-- Generator: Sketch 52.5 (67469) - http://www.bohemiancoding.com/sketch -->
    <title>合并形状</title>
    <desc>Created with Sketch.</desc>
    <g id="-" stroke="none" stroke-width="1" fill="none" fill-rule="evenodd">
        <g id="16回答详情-他人提出问题（不可采纳）" transform="translate(-263.000000, -558.000000)" fill="#333333" fill-rule="nonzero">
            <g id="Group-12" transform="translate(0.000000, 79.000000)">
                <g id="分组-8" transform="translate(254.000000, 469.000000)">
                    <g id="分组-5" transform="translate(10.000000, 7.000000)">
                        <path d="M4.44974747,12.4852814 L8.33883476,8.59619408 C8.53409691,8.40093193 8.8506794,8.40093193 9.04594155,8.59619408 C9.24120369,8.79145622 9.24120369,9.10803871 9.04594155,9.30330086 L4.80330086,13.5459415 C4.60803871,13.7412037 4.29145622,13.7412037 4.09619408,13.5459415 L-0.146446609,9.30330086 C-0.341708755,9.10803871 -0.341708755,8.79145622 -0.146446609,8.59619408 C0.0488155365,8.40093193 0.365398026,8.40093193 0.560660172,8.59619408 L4.44974747,12.4852814 Z M4.44974747,7.98528137 L8.33883476,4.09619408 C8.53409691,3.90093193 8.8506794,3.90093193 9.04594155,4.09619408 C9.24120369,4.29145622 9.24120369,4.60803871 9.04594155,4.80330086 L4.80330086,9.04594155 C4.60803871,9.24120369 4.29145622,9.24120369 4.09619408,9.04594155 L-0.146446609,4.80330086 C-0.341708755,4.60803871 -0.341708755,4.29145622 -0.146446609,4.09619408 C0.0488155365,3.90093193 0.365398026,3.90093193 0.560660172,4.09619408 L4.44974747,7.98528137 Z" id="合并形状"></path>
                    </g>
                </g>
            </g>
        </g>
    </g>
</svg>