<?xml version="1.0" encoding="utf-8"?>
<!-- Generator: Adobe Illustrator 19.0.0, SVG Export Plug-In . SVG Version: 6.00 Build 0)  -->
<svg version="1.1" id="图层_1" xmlns="http://www.w3.org/2000/svg" xmlns:xlink="http://www.w3.org/1999/xlink" x="0px" y="0px"
	 viewBox="-411 288.3 19 20" style="enable-background:new -411 288.3 19 20;" xml:space="preserve">
<style type="text/css">
	.st0{fill:#FFFFFF;}
	.st1{fill:#11BFF4;}
</style>
<path id="path-1" class="st0" d="M-405.5,308.3v-13.3h0c0.5-0.7,1-1.3,1.2-1.9c0.4-0.9,0.5-1.9,0.4-2.9h0c-0.1-0.9,0.6-1.8,1.5-1.9
	c0.1,0,0.1,0,0.2,0h0.3c1.7,0,3,1.3,3,3c0,0,0,0,0,0c0,0.5-0.1,1.1-0.2,1.7c-0.1,0.7-0.2,1.3-0.3,1.9h4.8c1.1,0,2,0.9,2,2
	c0,0.2,0,0.4-0.1,0.6l-3,9.3c-0.3,0.8-1,1.4-1.9,1.4H-405.5z M-407,308.3h-2c-1.1,0-2-0.9-2-2v-9.3c0-1.1,0.9-2,2-2h2V308.3z"/>
<path id="path-1_1_" class="st1" d="M-405.5,308.3v-13.3h0c0.5-0.7,1-1.3,1.2-1.9c0.4-0.9,0.5-1.9,0.4-2.9h0
	c-0.1-0.9,0.6-1.8,1.5-1.9c0.1,0,0.1,0,0.2,0h0.3c1.7,0,3,1.3,3,3c0,0,0,0,0,0c0,0.5-0.1,1.1-0.2,1.7c-0.1,0.7-0.2,1.3-0.3,1.9h4.8
	c1.1,0,2,0.9,2,2c0,0.2,0,0.4-0.1,0.6l-3,9.3c-0.3,0.8-1,1.4-1.9,1.4H-405.5z M-407,308.3h-2c-1.1,0-2-0.9-2-2v-9.3c0-1.1,0.9-2,2-2
	h2V308.3z"/>
</svg>
